<svg xmlns="http://www.w3.org/2000/svg" viewBox="0 0 325 212.5"><defs><style>.cls-1{fill:#fefefe;}.cls-2{fill:#221e1f;}.cls-3{fill:#231f20;}.cls-4{fill:#fdfdfd;}.cls-5{fill:#252122;}.cls-6{fill:#3f3c3d;}.cls-7{fill:#484546;}.cls-8{fill:#464344;}.cls-9{fill:#444142;}.cls-10{fill:#f5f5f5;}.cls-11{fill:#2a2728;}.cls-12{fill:#f5f4f5;}.cls-13{fill:#f3f2f3;}.cls-14{fill:#9a9999;}.cls-15{fill:#fcfcfc;}.cls-16{fill:#f9f9f9;}.cls-17{fill:#ecebeb;}.cls-18{fill:#b6b4b5;}.cls-19{fill:#3d3a3b;}.cls-20{fill:#a5a3a4;}.cls-21{fill:#605e5f;}.cls-22{fill:#939292;}.cls-23{fill:#9d9c9d;}.cls-24{fill:#d2d1d2;}.cls-25{fill:#a3a1a2;}.cls-26{fill:#d8d7d7;}.cls-27{fill:#d6d4d5;}.cls-28{fill:#dedede;}.cls-29{fill:#cccacb;}.cls-30{fill:#8c8b8b;}.cls-31{fill:#c2c1c1;}.cls-32{fill:#dddcdc;}.cls-33{fill:#b3b1b2;}.cls-34{fill:#f6f5f6;}.cls-35{fill:#646263;}.cls-36{fill:#b0aeaf;}.cls-37{fill:#9a9899;}.cls-38{fill:#d1d0d1;}.cls-39{fill:#d6d5d5;}.cls-40{fill:#9f9d9e;}.cls-41{fill:#4e4b4c;}.cls-42{fill:#4d4b4c;}.cls-43{fill:#f4f4f4;}.cls-44{fill:#d5d4d4;}.cls-45{fill:#dfdedf;}.cls-46{fill:#737272;}.cls-47{fill:#474546;}.cls-48{fill:#474445;}</style></defs><title>Fichier 1</title><g id="Calque_2" data-name="Calque 2"><g id="Calque_1-2" data-name="Calque 1"><path class="cls-1" d="M162.52,212.45q-80.21,0-160.41,0c-1.59,0-2.11-.15-2.11-2Q.09,106.21,0,1.91C0,.31.43,0,2,0Q162.48.08,323,0c1.85,0,2,.55,2,2.12q-.08,104.17,0,208.35c0,1.75-.39,2-2.07,2Q242.72,212.43,162.52,212.45Z"/><path class="cls-2" d="M205.5,51.56c1.82.7,2.33,2.47,2.95,4A203.3,203.3,0,0,0,217,74c1.05,2,2,2.64,4,1.35a8.7,8.7,0,0,1,6.64-.88c5.64,1.12,11.36,1.36,17.06,1.91,12.18,1.16,24.18,3.11,35.45,8.17.52.24,1,.55,1.5.83a1.26,1.26,0,0,1-.65.51c-1.4.33-2.64-.26-3.88-.71-11.78-4.2-24-6-36.43-7.08-3.47-.3-7-.23-10.42-1a3.16,3.16,0,0,0-3.92,1.81,3.5,3.5,0,0,0,.7,4.34A10.45,10.45,0,0,0,231.47,86c4.29,1.56,8.79,1.84,13.26,2.27,10.28,1,20.51,2.27,30.69,4a51.55,51.55,0,0,1,8.21,2.12,16.68,16.68,0,0,0,2.72.59,1.64,1.64,0,0,1,.68.41,1.08,1.08,0,0,1-.64,1.31,75.1,75.1,0,0,1-9.14-.42,37.61,37.61,0,0,0-18.86,3.8,51.42,51.42,0,0,0-27,28.08c-1.37,3.35-1.61,7-2.44,10.43a2.64,2.64,0,0,0,.68,2.31,19.26,19.26,0,0,1,1.51,2.29c2.82,4.83,9,4.91,11.92.11a35.9,35.9,0,0,0,3.41-8c.34-1.08.48-2.33,1.66-3,.9.37.67,1,.37,1.64-.85,3.63-1.62,7.28-2.58,10.89a6.23,6.23,0,0,1-6,4.42c-13.64-.14-27.28-.41-40.92-.59-10.4-.13-20.8-.16-31.19-.29q-27.72-.36-55.45-.78a4.47,4.47,0,0,0-2.93.82,7.39,7.39,0,0,1-11.25-4c-.87-3.11-1.46-6.31-2.07-9.49-2.59-13.39-16-24.56-31.78-23.69a29.71,29.71,0,0,0-22.19,11.19c-.51.16-.69-.16-.82-.56,1.27-3.89,4.24-6.49,7.58-8.21,12.93-6.68,25.93-6.26,38.29,1.35,6.32,3.89,9.94,10.18,11.91,17.32a99.31,99.31,0,0,1,2.09,9.77,7.34,7.34,0,0,0,.57,2.16c.72,1.45,1.74,2.54,3.5,2.25a3,3,0,0,0,2.58-3.23c.06-10.89-1.81-21.22-9.05-29.93A72.44,72.44,0,0,0,91,105.32c-7.59-6.67-16.6-9.09-26.49-9.33-5.94-.15-11.75,0-17.47,1.93-9.29,3.11-16.7,8.37-21.25,17.31-4.36,8.57-10.45,16-15.86,23.91-.59.85-1.88,1.8-1.29,2.74s2.15.4,3.27.29c6.71-.62,12.85-2.55,17.92-7.29a40.64,40.64,0,0,0,4.68-5.5c1.57-2.13,3.17-4.25,5.54-5.6.42.11.71.31.54.82-4.11,7.45-9.73,13.4-17.51,17-5.91,2.75-12.16,3.55-19.11,2.91,3.73-4.3,4.44-9.32,5.62-14.19,1.55-6.34,5-11.92,7.42-17.89,1.76-4.28,3-8.81,6-12.49.46-.18.67.1.84.44.19.56-.16,1.5.91,1.45,2.85-.12,5.84.69,8.25-1.79a12.46,12.46,0,0,1,4.51-2.61c3.05-1.19,4.14-3.76,2.89-6.79A30.88,30.88,0,0,0,38,86.49c-1.3.77-1.18,1.84-.88,2.88a3.59,3.59,0,0,1-1.42,4.17,38.43,38.43,0,0,0-3,2.95c-3.09,3.06-3.09,3.06-6.69.94a1.37,1.37,0,0,1-.54-.44,13.82,13.82,0,0,1,4-5.59c3.76-3.65,6.61-8.06,10.33-11.71.53-.52,1-1.16,1.8-1.21a.94.94,0,0,1,.21.94c-1.92,3.44,0,6.49,1.1,9.53,1,2.76,2.63,2.81,4.61.66,7.33-8,14.86-15.7,24.29-21.26,3.16-1.87,6-4.22,9-6.35a26.23,26.23,0,0,1,6.54-3.59c6.28-2.22,12.22-5.31,18.71-7,7.21-1.84,14.59-2.6,21.93-3.47,9-1.06,18.1-.63,27.15-.79,5.84-.11,11.64.19,17.46.23,9.92.08,19.53,1.77,28.56,6.15C204.65,55.28,204.68,55.21,205.5,51.56Z"/><path class="cls-2" d="M67.35,170.6a27.32,27.32,0,1,1,27.4-27.4A27.29,27.29,0,0,1,67.35,170.6Z"/><path class="cls-2" d="M278.44,170.6a27.32,27.32,0,1,1,27.52-27A27.25,27.25,0,0,1,278.44,170.6Z"/><path class="cls-1" d="M248.06,132.51c-1.3,3.06-1.94,6.35-3.47,9.33-2.9,5.64-6.44,7-12.26,4.58a1.48,1.48,0,0,1-.9-1c-.42-1.08-.72-2.42-1.53-3.07-2.29-1.84-1.35-3.86-1.13-6.16,1.51-16.44,19.39-37.51,42.16-40.26a50,50,0,0,1,15.53.51c1.59-.83,3.06,0,4.55.35,1,.24,1.91.54,2.88.74,1.5.51,3.16.25,4.64.91,4.14,1.58,7.43,4.37,10.45,7.51,1.83,1.91,2.2,4.43,2.61,6.9a83.6,83.6,0,0,0,7.06,22.28,2.22,2.22,0,0,0,.81.91,2.46,2.46,0,0,0,0,.26c-.17,1.23-.29,2.49-1.81,2.9s-2.2-.52-3-1.38a8.86,8.86,0,0,1-1.7-2.15c-3.5-7.75-9.32-13.9-14.56-20.38-5-6.19-12.09-9-20-9.37-4.16-.2-8,1.42-11.6,3.4a37,37,0,0,0-12.51,11.24,21.44,21.44,0,0,0-2.64,4.15,17,17,0,0,1-1.25,2.53l.06.6c-.95.91-1,2.22-1.5,3.33A1.78,1.78,0,0,1,248.06,132.51Z"/><path class="cls-1" d="M205.5,51.56a10.93,10.93,0,0,1,.44,2.42c-.08,1.59-1.12,2.45-2.51,1.6-10.2-6.19-21.57-7.38-33.1-7.71-12.77-.37-25.56-.55-38.31.3-15.57,1-30.73,4.19-45,10.9a47.17,47.17,0,0,0-6.4,3.81c-9.9,6.72-19.79,13.44-28.25,22A23.49,23.49,0,0,0,48,90a3.67,3.67,0,0,1-3.18,2.14c-1.41-.09-2.08-1.5-2.54-2.81-.57-1.64-1.11-3.31-1.77-4.92-.91-2.22.44-4,1-5.9l-.06.07c2.58-2.43,4-2.63,7-.77,1.7,1.07,3.06.28,4.32-.66a123.57,123.57,0,0,0,9.64-8.21,68.89,68.89,0,0,0,5.52-5c2-1.89,4.2-3.53,6.05-5.58,1.7-1.9,3.81-3.45,4.08-6.34.11-1.18,1.23-1.93,2.35-2.4,8-3.4,16.22-6.51,24.79-8.29a164,164,0,0,1,22.94-3.2c10.05-.63,20.12-.38,30.18,0a141,141,0,0,1,22.05,2.21c5.23,1,10.39,2.3,15.56,3.57,3.24.8,5.73,3,8,5.29a5.64,5.64,0,0,0,1.48,1.32Z"/><path class="cls-3" d="M205.46,50.47c-2-.06-2.86-1.92-4.21-2.92a21.52,21.52,0,0,0-7.78-3.72,169.24,169.24,0,0,0-43.37-5.1c-6.77.1-13.58-.38-20.37,0a148.21,148.21,0,0,0-38.92,7.34c-3.72,1.24-7.15,3.32-11,4.45-.7.21-1.49.9-1.35,1.64.68,3.53-2.4,4.83-4.1,6.81s-4.18,3.75-6.3,5.59c-.49.2-.68-.1-.82-.48,0-1.51,1-2.42,2-3.23s2.19-2,3.32-3A9,9,0,0,0,76,51.52C81,48,86.77,46,92.5,44.12c17.81-5.86,36.21-7.41,54.82-7.18,14.4.17,28.75,1,42.76,4.66,4.11,1.07,8.57,1.39,11.85,4.71A20.65,20.65,0,0,1,205.46,50.47Z"/><path class="cls-3" d="M253.88,120.34c5.23-7.62,12.08-13.19,21.31-14.72,9.4-1.56,17.25,2.3,23.65,9,4.82,5,8.06,11.36,12.85,16.46,1.55,1.65,1.18,4.2,3.06,5.83,2.89,2.52,2.91,2.65,4.73-.62.47,1.3.64,2.58-.38,3.74-1.44,1.64-3.17,1.28-4.48-.51-5.42-7.43-10.17-15.4-16.76-21.93-13.36-13.22-29.58-12.5-41.85,1.8-.48.56-1,1.1-1.47,1.66C254,121.13,253.73,120.92,253.88,120.34Z"/><path class="cls-4" d="M76,51.52c.67,3.28-1.2,5.29-3.42,7.25-1.82,1.6-4,2.87-5,5.24s-3.46,3-5.11,4.62a99.12,99.12,0,0,1-8.56,7.26c-4.09,3.18-5.2,2.87-7.31-1.84a40,40,0,0,0,9.31-7.53c.81-.09,1.23-.7,1.7-1.25,1.46-.77,3.07-1.35,3.55-3.22.07-.27.37-.66.61-.69,4.2-.53,6.82-4,10.41-5.6A7.08,7.08,0,0,0,76,51.52Z"/><path class="cls-3" d="M319.46,136c-1.35.48-1.21-.81-1.54-1.4a46.8,46.8,0,0,1-6.27-18.51c-.84-8.8-6-13.58-13.18-17.13-.13-.39.09-.6.39-.76.82-.73-.21-.9-.45-1.11a54.88,54.88,0,0,0-9-6.46c-.77-.45-1.68-.71-2.13-1.6a.75.75,0,0,1,.19-.64,29.68,29.68,0,0,1,12.84,6.65c3.18,2.77,6.13,5.81,9.14,8.77a3.46,3.46,0,0,0,1.62,1.09c2.92.63,3.68,2.77,3.87,5.35.14,2,.85,4.13.34,5.92C313.18,123.62,318,129.43,319.46,136Z"/><path class="cls-5" d="M46.55,74.05c1.14-.43.84.58,1.08,1.07,1.22,2.53,2.43,2.92,4.66,1.18,3-2.29,5.84-4.68,8.61-7.19C63,67.22,65.31,65.7,67.53,64l.57.54A173.73,173.73,0,0,1,53,77.85c-1.69,1.3-3.54,1.84-5.58,0s-4,0-5.87.74c0-1.82,1.86-1.81,2.77-2.73A23,23,0,0,1,46.55,74.05Z"/><path class="cls-6" d="M253.88,120.34l.66.7c-1,1-1.2,2.63-2.42,3.52-.23.25-.43.23-.61-.06A10,10,0,0,1,253.88,120.34Z"/><path class="cls-7" d="M23.63,100.63,23,100c.78-1,.85-2.65,2.47-3l.63.05C25.85,98.63,25.42,100.1,23.63,100.63Z"/><path class="cls-8" d="M248.57,131c.53-1.14.32-2.72,1.94-3.2a15,15,0,0,1-1.52,4.7C248.44,132.13,248.92,131.46,248.57,131Z"/><path class="cls-9" d="M41.53,122l.56.55a5,5,0,0,1-1.49,2.07L40,124C39.83,122.8,40.15,122,41.53,122Z"/><path class="cls-8" d="M251.51,124.5l.61.06c-.22,1.09-.46,2.18-1.67,2.66A3.23,3.23,0,0,1,251.51,124.5Z"/><path class="cls-10" d="M30.38,139.9l-1-.61a4.3,4.3,0,0,1,1-.91c.13-.06.68.45.78.77C31.35,139.64,30.91,139.81,30.38,139.9Z"/><path class="cls-2" d="M280.76,85.62l.9-.2A3.19,3.19,0,0,1,284,86.5a.94.94,0,0,1-.71.71C282.2,87.06,281.18,86.81,280.76,85.62Z"/><path class="cls-2" d="M287.5,88.41l0,.54c-1.11.43-1.69-.17-2.1-1.09l.09-.33A1.73,1.73,0,0,1,287.5,88.41Z"/><path class="cls-11" d="M248.57,131c.54.39.29,1,.42,1.5a1.88,1.88,0,0,1-.51,1.49c-.06-.52.09-1.1-.42-1.5Z"/><path class="cls-2" d="M283.47,86.87l.52-.37a1.36,1.36,0,0,1,1.46,1l0,0C284.56,88.11,283.87,88,283.47,86.87Z"/><path class="cls-12" d="M298.45,165.19c-.79.43-1,.64-1.15.61a.54.54,0,0,1-.52-.64.65.65,0,0,1,.49-.39A5.52,5.52,0,0,1,298.45,165.19Z"/><path class="cls-13" d="M69.94,115.11c.38-.3.53-.5.71-.53a.83.83,0,0,1,.62.19c.19.21.11.45-.23.44S70.48,115.16,69.94,115.11Z"/><path class="cls-10" d="M292.62,116c-.16-.27-.35-.45-.37-.66a.43.43,0,0,1,.55-.52.64.64,0,0,1,.38.49C293.17,115.46,292.92,115.62,292.62,116Z"/><path class="cls-10" d="M82.35,117.15c-.17.22-.26.48-.43.54a.44.44,0,0,1-.62-.46c0-.16.27-.42.45-.45S82.11,117,82.35,117.15Z"/><path class="cls-14" d="M57.56,65.27c-.24.86-.55,1.63-1.7,1.25A3,3,0,0,1,57.56,65.27Z"/><path class="cls-10" d="M91,125.83c-.27.17-.46.36-.66.38a.44.44,0,0,1-.53-.55.62.62,0,0,1,.49-.38C90.48,125.29,90.65,125.53,91,125.83Z"/><path class="cls-13" d="M69.74,54.68a5.21,5.21,0,0,1,.43.8c.1.3-.14.49-.36.31a1.87,1.87,0,0,1-.43-.8S69.55,54.83,69.74,54.68Z"/><path class="cls-1" d="M207,62.54a172.47,172.47,0,0,1,9.7,16.17,60.73,60.73,0,0,0,5.16,7.62,5.14,5.14,0,0,1,1.09,3.2c-.19,12.14-.32,24.27-.5,36.4,0,3.65-.29,7.31-.26,11,0,1.6-.39,2.08-2,2.09-9.23,0-18.46.19-27.69.27-15.63.14-31.26.22-46.89.41-1.84,0-2.38-.42-2.39-2.29Q143,95,142.75,52.71c0-.89-.28-1.83.26-2.67,1.56-.13,3.18-.93,4.61.41-2.19,2.16-2.47,4.84-2.41,7.76.12,6.3,0,12.6,0,18.9,0,1.65,0,3.33,1,4.77a4,4,0,0,0,1.07.75,13.54,13.54,0,0,0,3.48.17q23.75,0,47.51,0c3.39.06,6.78.08,10.18,0,4.26-.09,5.89-2.6,4.23-6.65A84.53,84.53,0,0,0,208,67.45c-.75-1.35-2-2.51-1.89-4.23C206.25,62.8,206.44,62.46,207,62.54Z"/><path class="cls-1" d="M139.53,50c1.67,1.61,1.12,3.76,1.2,5.65.35,8.62-.21,17.23-.47,25.86-.45,14.32-.09,28.66,0,43,0,4.35,0,8.71.24,13.06.09,1.82-.64,2.19-2.22,2.18q-13.2-.07-26.39,0c-1.26,0-1.75-.21-1.94-1.7-1.35-10.42-4.15-20.31-10.83-28.78-7.52-9.54-17.26-14.7-29.36-15.8a68,68,0,0,0-23.19,1.63,111.12,111.12,0,0,1,8.63-9.34c7.28-7.45,15-14.39,23.83-20,.77-.48,1.59-.88,2.39-1.32.6-.15.79.2.87.7-.11.92-.82,1.41-1.4,2a17.18,17.18,0,0,0-3.35,4.63c-3,6.4.61,13.13,7.67,13.37a249.11,249.11,0,0,0,26.21-.2c6.39-.45,12.81-.12,19.23-.15,7.11,0,7.76-.71,7.68-7.93-.06-5.75.11-11.5-.06-17.24-.09-3-.18-6.15-1.37-9C137.5,49.18,138.57,49.86,139.53,50Z"/><path class="cls-1" d="M41.53,122a4,4,0,0,0-1.5,2c-2.3,2.73-4.62,5.43-6.88,8.19C26.83,139.92,18,143.46,6.79,142.7c2.16-3.13,4.07-6.22,6.3-9.06,5.95-7.52,10.36-16,15.66-24,3.18-4.77,7.63-7.64,12.83-10.18,10-4.85,20.27-4.86,30.69-3.49,10.13,1.34,18,6.89,24.86,14.44,8.58,9.49,11.42,20.72,11.4,33a3.55,3.55,0,0,1-3.18,3.86c-2.43.37-3.85-1.1-4.41-3.16-.81-3-1.23-6.17-1.9-9.25a33.79,33.79,0,0,0-6-13.3c-4.1-5.43-9.55-8.6-16-10.35a37.41,37.41,0,0,0-26.91,2.35A20.19,20.19,0,0,0,41.53,122Z"/><path class="cls-1" d="M225.43,121.45c.14-10.94.29-21.89.39-32.83,0-1.71.24-2.12,1.86-.92,4.18,3.09,9.21,1.83,13.85,2.18a204.24,204.24,0,0,1,27.35,3.8,16.17,16.17,0,0,1,1.82.69,46.22,46.22,0,0,0-16.81,4.78c-12,6.24-19.8,16.14-25,28.35a86.92,86.92,0,0,0-3,8.44c-.4,0-.66-.16-.65-.54C225.33,130.75,225,126.1,225.43,121.45Z"/><path class="cls-1" d="M283.47,86.87c.62.38,1.18.95,2,.61.12,1.21,1.26,1,2,1.47a54.38,54.38,0,0,1,13.6,9.87l-2-.37c-1,0-2-.39-3-.51a57.76,57.76,0,0,1-9.12-2.4.33.33,0,0,0-.35-.12c-.84-.41-1.82.12-2.64-.4-15.49-4.14-31.46-5-47.28-7A20.1,20.1,0,0,1,227.79,85c-3.19-2.12-3.52-5.21-1-8a1.89,1.89,0,0,1,1.95-.81c5.18,1.32,10.54,1.13,15.81,1.69,12.11,1.28,24,3.38,35.44,7.77a2.92,2.92,0,0,0,.73.06C281.5,86.39,282.56,86.47,283.47,86.87Z"/><path class="cls-4" d="M168,141.86q27.67,0,55.36,0c2.32,0,4.78,1.78,5.21,3.75.22,1,.2,1.5-1.14,1.48-14.37-.21-28.75-.34-43.12-.5l-28.21-.33q-22.44-.27-44.88-.58c-.61,0-1.89.44-1.76-.66.12-.92.17-2.46,1.87-2.41H168Z"/><path class="cls-3" d="M145.86,82.61c-1.21-.82-1.21-2.1-1.22-3.34,0-8.24,0-16.48,0-24.72,0-2,.67-3.57,2.84-4.08,3.51-.91,7-.37,10.51.05l1-.5c1.18.57,2.44.13,3.66.27h4.17a27.84,27.84,0,0,0,4.08.24h1.63a5.36,5.36,0,0,1,2.37.45l1.13-.46c1.19.87,2.8,0,4,1l1-.48a10.45,10.45,0,0,0,3.49.76c.93.27,1.92.17,2.83.5a6.49,6.49,0,0,0,2.44.23l-.05,0a16.55,16.55,0,0,0,3.77,1.26A15.31,15.31,0,0,1,197,55l1.45.49c.7.54,1.63.77,2.16,1.55A9.6,9.6,0,0,1,205,60.58a4.23,4.23,0,0,1,1.39,2.6c2,3.51,4,7,6,10.55a15.39,15.39,0,0,1,1.49,3.38c1.07,4-.79,6.45-5,6.45-3.3,0-6.61-.06-9.92-.1.4-1.47,1.65-1,2.62-1.12,1.78-.2,3.62.37,5.34-.45,1.55-1,1.65-2.4.93-3.93a116.72,116.72,0,0,0-8-14.39c-2.63-4-7.17-5.39-11.51-6.48-11.25-2.81-22.65-4.64-34.32-4.37-5.16.12-6.85,1.77-6.86,7,0,6.41,0,12.82,0,19.23a8.31,8.31,0,0,1-.31,3.21C146.65,82.51,146.39,82.83,145.86,82.61Z"/><path class="cls-3" d="M137.05,50.47c1.24.41,1.48,1.36,1.54,2.55.43,8.72.7,17.45.45,26.19-.15,5.43-.93,6.1-6.3,6.18-15.13.23-30.25.54-45.38.72-6.22.08-10-2.26-11.3-7.07-1.54-5.54,1.2-9.61,5.06-13.16l.93-.82c.32-.87,1.12-1.25,1.8-1.75A10,10,0,0,1,85,62.8a13.52,13.52,0,0,1,1.55-1.15,8.74,8.74,0,0,1,2.69-1.13L90,60a24.87,24.87,0,0,0,2.83-1.53c2.36-1.3,5.23-1.34,7.45-3,1.32.17,2.48-.44,3.7-.73.84-.33,1.76-.43,2.59-.81l.42-.48c1.85.61,3.41-.72,5.16-.74.81,0,1.57-.31,2.38-.25l1.48-.34c1.14-.65,2.42-.46,3.64-.65l.32,0c1.64-.62,3.37-.29,5.06-.47.34-.62.93-.54,1.5-.55,2.15-.19,4.3.52,6.46,0,.74-.67,1.75,0,2.53-.53C135.9,50.52,136.61,50,137.05,50.47Z"/><path class="cls-15" d="M23.63,100.63,26.1,97c.5-.33.93-.66,1.33.2.88,1.88,2,1.56,3.3.34C32.34,96,33.91,94.41,35.62,93a2.83,2.83,0,0,0,1-3.52c-.77-1.87-.22-3.15,1.59-4.07l2.36,4.19c2.09,3.71,1,7-2.94,8.51a7.55,7.55,0,0,0-2.87,1.45c-3.3,3.69-7.67,2.64-11.73,3C22.75,101.67,23.63,101.3,23.63,100.63Z"/><path class="cls-15" d="M27.16,103.66a1.79,1.79,0,0,1,1.58,2.79c-1.42,2.21-3,4.31-4.56,6.44a2.29,2.29,0,0,1-2.47.65c-.95-.16-1.2-1-1.42-1.83a5.83,5.83,0,0,1,.24-2.17C20.93,105.11,22.87,103.39,27.16,103.66Z"/><path class="cls-16" d="M19.12,113.05c.39,1.52-.78,3.32.81,4.66.13.1,0,.64-.16.91a40.1,40.1,0,0,1-7.43,9.88c1.27-5.67,5-10.32,6.26-16C19.06,112.42,19.29,112.54,19.12,113.05Z"/><path class="cls-17" d="M224.14,77.51c-.8,4-.73,4.54.94,7.88-1.9-1.61-3-3.87-4.44-5.84-.43-.58.12-.9.58-1.08C222.12,78.13,222.85,77.31,224.14,77.51Z"/><path class="cls-18" d="M158,50.52l-10.51-.05c-1.42-.81-3-.14-4.46-.43,3.85-.92,7.75-.46,11.61-.22C155.68,49.89,157.1,49.28,158,50.52Z"/><path class="cls-19" d="M287,95.54c3.29.11,6.38,1.13,9.49,2-.65,1.41-1.76.49-2.69.53l-7.29-1.67Z"/><path class="cls-20" d="M225.43,121.45c0,4,0,8.1.06,12.15,0,.79-.32,1.67.43,2.34.17.64-.13,1.12-.87,1.88,0-3.8-.07-7.28,0-10.75C225.14,125.2,224.57,123.28,225.43,121.45Z"/><path class="cls-18" d="M133,50.55c-2.16.3-4.31.91-6.46,0C128.64,49.48,130.79,50.7,133,50.55Z"/><path class="cls-21" d="M112,52.92c-1.66.42-3.19,2-5.06.59,1.7-.2,3.26-1.15,5-.92Z"/><path class="cls-22" d="M180,51.52c-1.33-.27-2.92.45-4-1C177.3,51,179,49.7,180,51.52Z"/><path class="cls-23" d="M125,51.08a13.31,13.31,0,0,1-5.06.47A5.39,5.39,0,0,1,125,51.08Z"/><path class="cls-22" d="M171,50.88a9.33,9.33,0,0,1-4-.36c-.16-.1-.22-.19-.17-.29s.1-.15.16-.15l4,.2A.46.46,0,0,1,171,50.88Z"/><path class="cls-24" d="M193.5,53.94c-1.4-.13-2.91.08-3.78-1.43,1.28.25,2.69.09,3.75,1.11Z"/><path class="cls-25" d="M104,55c-1.24.34-2.36,1.51-3.78.51a8.19,8.19,0,0,1,3.78-1c.17.1.23.21.17.32S104.08,55,104,55Z"/><path class="cls-26" d="M89.25,60.52c-.81.69-1.53,1.59-2.81,1.16v0A2.05,2.05,0,0,1,89.25,60.52Z"/><path class="cls-27" d="M193.5,53.94a1.73,1.73,0,0,0,0-.32c1.38-.08,2.67.07,3.49,1.4A4.88,4.88,0,0,1,193.5,53.94Z"/><path class="cls-28" d="M84.12,63.58a4.34,4.34,0,0,1-2.07,1.48l-.67-.63c.68-.52,1.05-1.5,2.13-1.44A.72.72,0,0,1,84.12,63.58Z"/><path class="cls-13" d="M187.48,52.59a7.09,7.09,0,0,1-3-.56c-.17-.1-.22-.2-.16-.29s.11-.14.17-.14a5.11,5.11,0,0,1,3,.51.3.3,0,0,1,.11.32C187.56,52.53,187.52,52.59,187.48,52.59Z"/><path class="cls-29" d="M184.51,51.6c0,.14,0,.29,0,.43-1.24-.07-2.61.31-3.49-1Z"/><path class="cls-30" d="M119.61,51.53c-1.09.93-2.46.24-3.64.65C117.08,51.39,118.19,50.6,119.61,51.53Z"/><path class="cls-18" d="M137.05,50.47c-.56,0-1.23.35-1.57-.45,1.35-.05,2.7-1,4.05,0C138.72,50.27,137.78,49.76,137.05,50.47Z"/><path class="cls-31" d="M92.79,58.51C92.28,59.8,91.19,60.05,90,60,90.52,58.82,91.64,58.63,92.79,58.51Z"/><path class="cls-32" d="M206.4,63.18a5,5,0,0,1-1.39-2.6,2.48,2.48,0,0,1,2,2Z"/><path class="cls-33" d="M167,50.08c0,.15,0,.29,0,.44a14.38,14.38,0,0,1-4.49-.16v-.2A15.28,15.28,0,0,1,167,50.08Z"/><path class="cls-34" d="M187.48,52.59c0-.16,0-.32,0-.48a2.64,2.64,0,0,1,2.28.42C189,53.39,188.25,53,187.48,52.59Z"/><path class="cls-35" d="M112,52.92c0-.11,0-.22,0-.33.83-.11,1.64-1,2.49-.07A3.07,3.07,0,0,1,112,52.92Z"/><path class="cls-22" d="M174.87,51l-2.34-.1c-.12-.38.05-.57.42-.62C173.78,50,174.3,50.57,174.87,51Z"/><path class="cls-36" d="M162.51,50.16v.2c-1.2,0-2.46.68-3.55-.34A10.09,10.09,0,0,1,162.51,50.16Z"/><path class="cls-22" d="M173,50.27l-.42.62H171v-.6Z"/><path class="cls-37" d="M19.12,113.05l-.52-.5c-.05-.59.15-1.4.71-1.13S19.59,112.54,19.12,113.05Z"/><path class="cls-38" d="M86.43,61.66v0c.12,1.06-.75,1.1-1.4,1.36a.47.47,0,0,1-.05-.77C85.4,61.89,85.8,61.52,86.43,61.66Z"/><path class="cls-39" d="M200.57,57.06c-.76-.46-1.78-.56-2.16-1.55C199.37,55.68,200.39,55.79,200.57,57.06Z"/><path class="cls-1" d="M85,62.27,85,63l-.92.54L83.51,63C83.76,62.25,84.6,62.72,85,62.27Z"/><path class="cls-40" d="M104,55v-.48a3.59,3.59,0,0,1,2.51-.55C105.91,54.86,104.87,54.7,104,55Z"/><path class="cls-41" d="M284,95a3.9,3.9,0,0,1,2.64.4C285.68,95.53,284.74,95.82,284,95Z"/><path class="cls-1" d="M81.62,143.58a14.32,14.32,0,1,1-14.23-14.19A14.08,14.08,0,0,1,81.62,143.58Z"/><path class="cls-1" d="M278.06,127.28a15.71,15.71,0,1,1-.16,31.41A15.78,15.78,0,0,1,262.2,143,15.57,15.57,0,0,1,278.06,127.28Z"/><path class="cls-42" d="M293.75,98.09c.88-.29,1.91.25,2.69-.53.89.24,1.87.21,2.6.89l-.57.53Z"/><path class="cls-12" d="M244,111.44c-.46-.17-.83-.35-.66-.7a1.09,1.09,0,0,1,.8-.46.44.44,0,0,1,.47.63C244.53,111.15,244.2,111.3,244,111.44Z"/><path class="cls-43" d="M49.3,84.24c1,.59,1.3,1.1.48,1.93C49.33,85.62,48.87,85.14,49.3,84.24Z"/><path class="cls-13" d="M54.25,81.69c-.22.64-.58,1.3-1.11,1-.74-.49.12-.67.42-.87A1.86,1.86,0,0,1,54.25,81.69Z"/><path class="cls-13" d="M66.89,70.81a2.4,2.4,0,0,1-.65.4c-.07,0-.26-.3-.39-.46a4.45,4.45,0,0,1,.58-.38C66.69,70.26,66.87,70.36,66.89,70.81Z"/><path class="cls-10" d="M56.84,71.36c-.21-.19-.46-.31-.5-.49a.43.43,0,0,1,.5-.56.65.65,0,0,1,.42.47C57.27,71,57,71.12,56.84,71.36Z"/><path class="cls-44" d="M312.55,109c-.77-.47-.83-1.29-1.22-2.42,1.14.4,1.71.81,1.67,1.85C313.27,108.92,313,109,312.55,109Z"/><path class="cls-45" d="M312.55,109l.45-.57c.7.54.36,1.37.58,2,.08.47.36,1-.55,1C313,110.57,312.19,109.88,312.55,109Z"/><path class="cls-46" d="M313,111.4l.55-1c.62.64.23,1.4.4,2.21A1.09,1.09,0,0,1,313,111.4Z"/><path class="cls-47" d="M207.49,82.53c-1.54,1.11-3.3.29-4.94.54-1.17.18-2.43-.4-3.54.39l-51.72-.13a3.56,3.56,0,0,1-.94-.26c1-1,2.33-.75,3.55-.75q13.46,0,26.92,0a11.27,11.27,0,0,0,3.7-.38c8.3-.46,16.62-.16,24.93-.16A2.55,2.55,0,0,1,207.49,82.53Z"/><path class="cls-48" d="M180.5,82.55c-.84.81-1.89.44-2.85.45q-15.65.06-31.3.07l-.49-.46.69-.67c1-.82,2.19-.63,3.34-.65,9.36-.15,18.71.51,28.07.51A3,3,0,0,1,180.5,82.55Z"/><path class="cls-43" d="M34.8,105.6c-.14.69-.52.7-1,.62s-.73.09-.62-.42a.77.77,0,0,1,.89-.65C34.38,105.2,34.6,105.46,34.8,105.6Z"/><path class="cls-13" d="M46,115.15c-.49-.14-.44-.5-.4-.79s.28-.47.37-.45a.56.56,0,0,1,.45.73C46.33,114.84,46.1,115,46,115.15Z"/><path class="cls-12" d="M46,98.77c.5,0,.78.18.72.56,0,.17-.36.43-.5.4a2.83,2.83,0,0,1-.84-.44Z"/><path class="cls-1" d="M180.5,82.55l-30-.43c-1.31,0-2.63-.12-3.95-.18q0-12,0-24a5.4,5.4,0,0,1,5.33-5.75c14.14-.43,28,1.19,41.44,5.9a14.94,14.94,0,0,1,9,8.07c1.84,3.9,4.35,7.46,6.25,11.35,1,2.06.82,3.65-1,5l-24-.08C182.48,82.45,181.49,82.51,180.5,82.55Z"/><path class="cls-1" d="M104.33,84.46H89.14a16.94,16.94,0,0,1-5.38-.93c-6.35-2.11-8.26-8.17-4.14-13.45s9.87-8.3,16-10.64C106,55.44,116.93,53.92,128,53a51.87,51.87,0,0,1,5.7-.25c2.83,0,3.91,1.18,3.92,4,0,6.13,0,12.25,0,18.38,0,.59,0,1.17,0,1.75.39,4.75,0,5.17-4.64,5.82C123.45,84,113.89,84,104.33,84.46Z"/><path class="cls-12" d="M23.35,111.73c-.38,0-.62-.28-.51-.64a2.76,2.76,0,0,1,.51-.71,4.38,4.38,0,0,1,.39.6C23.9,111.36,23.7,111.59,23.35,111.73Z"/><path class="cls-12" d="M17.84,118.79c.35.12.55.34.4.73s-.2.69-.6.61a.59.59,0,0,1-.46-.75A.69.69,0,0,1,17.84,118.79Z"/><path class="cls-10" d="M79.16,148.16c.23.17.48.25.55.42.16.37-.1.62-.44.63-.15,0-.42-.25-.45-.43S79,148.42,79.16,148.16Z"/></g></g></svg>