<?xml version="1.0" encoding="utf-8"?>
<!-- Svg Vector Icons : http://www.onlinewebfonts.com/icon -->
<!DOCTYPE svg PUBLIC "-//W3C//DTD SVG 1.1//EN" "http://www.w3.org/Graphics/SVG/1.1/DTD/svg11.dtd">
<svg version="1.1" xmlns="http://www.w3.org/2000/svg" xmlns:xlink="http://www.w3.org/1999/xlink" x="0px" y="0px" viewBox="0 0 1000 1000" enable-background="new 0 0 1000 1000" xml:space="preserve">
<metadata> Svg Vector Icons : http://www.onlinewebfonts.com/icon </metadata>
<g><g><g><path d="M501.2,10C230.5,10,10,230.5,10,502.4C10,771.9,230.5,990,501.2,990C771.9,990,990,773.1,990,502.4C990,230.5,762.1,10,501.2,10z M501.2,925C268.5,925,77.4,735.2,77.4,502.4c0-233.9,191.1-427.5,423.8-427.5c231.6,0,421.4,194.8,421.4,427.5C922.6,732.7,732.8,925,501.2,925z"/><path d="M689.9,242.8c-30.6,0-42.9,13.5-56.3,40.4L501.2,558.8H500L366.5,283.2c-13.5-27-25.7-40.4-56.4-40.4c-40.4,0-53.9,25.7-53.9,50.2v427.5c0,23.3,18.4,36.8,40.4,36.8c19.6,0,41.6-13.4,41.6-36.8V402h1.2l121.3,247.4c8.6,17.1,19.6,27,39.2,27c19.5,0,30.6-9.8,39.2-27L660.5,402h1.2v318.5c0,23.3,22,36.8,41.6,36.8c22.1,0,40.4-13.4,40.4-36.8V293C743.8,268.5,730.3,242.8,689.9,242.8z"/></g></g><g></g><g></g><g></g><g></g><g></g><g></g><g></g><g></g><g></g><g></g><g></g><g></g><g></g><g></g><g></g></g>
</svg>