<?xml version="1.0" encoding="utf-8"?>
<!-- Svg Vector Icons : http://www.onlinewebfonts.com/icon -->
<!DOCTYPE svg PUBLIC "-//W3C//DTD SVG 1.1//EN" "http://www.w3.org/Graphics/SVG/1.1/DTD/svg11.dtd">
<svg version="1.1" xmlns="http://www.w3.org/2000/svg" xmlns:xlink="http://www.w3.org/1999/xlink" x="0px" y="0px" viewBox="0 0 1000 1000" enable-background="new 0 0 1000 1000" xml:space="preserve">
<metadata> Svg Vector Icons : http://www.onlinewebfonts.com/icon </metadata>
<g><g><g><g><path d="M790.7,546.8c-1.2,0-2.3,0.1-3.5,0.2l-8.2-65.2h-9.4l-8.6-67.6c-1.2-9.5-9.3-16.5-18.8-16.5h-8.6c0.7-12.7-4.7-25.5-15.5-33.9L524.3,215.1c-0.3-0.3-0.7-0.5-1-0.7c-1-0.8-2.1-1.6-3.1-2.4c-40.1-29.1-96.2-20.1-125.3,20L245.2,438.3c-7.1,9.8-11.9,20.5-14.6,31.5h-5.4c-12.7,0-22.9,10.3-22.9,22.9v8.4c0,12.6,10.3,22.9,22.9,22.9h9.2c2.6,6.6,6,12.9,10.1,18.7c-4.3,3.8-6.9,6.2-6.9,6.2c-9.3-1.4-18.7-2.2-28.4-2.2C99.2,546.8,10,635.9,10,746c0,110,89.2,199.3,199.3,199.3c110,0,199.3-89.2,199.3-199.3c0-11.7-1.2-23.1-3.2-34.2l47.5-19.7l0.2,121.7c-4.9,6.2-7.9,14-7.9,22.4c0,19.8,16.1,35.9,35.9,35.9h81.7c19.8,0,35.9-16.1,35.9-35.9c0-19.8-16.1-35.9-35.9-35.9h-14l-0.3-147.8l93.2-38.5c-31.2,35.2-50.2,81.3-50.2,131.9c0,110,89.1,199.3,199.3,199.3c110,0,199.2-89.2,199.2-199.3C990,635.9,900.8,546.8,790.7,546.8z M544.3,330.9L669.6,427c7.2,5.6,15.5,8.5,28.3,8.5c12.8,0,27.7,0,27.7,0l5.9,46.3h-6.2l0.2,0.1H435.3L544.3,330.9z M209.3,909.1c-89.9,0-163-73.1-163-163c0-90,73.1-163,163-163c26.6,0,51.4,7,73.5,18.3l-88.2,149.8c0,0-12.1,19.5-0.2,32.3c11,11.8,31.2,2.7,31.2,2.7l144.6-59.9c0.7,6.6,1.9,12.9,1.9,19.6C372.3,835.9,299.2,909.1,209.3,909.1z M323.3,629.8c14.1,13.9,25.6,30.5,34,48.7l-82.9,34.2L323.3,629.8z M391,664.5c-11.5-25.6-28.2-48.3-48.9-66.8l7.4-12.6l86.2,60.9L391,664.5z M541.1,603.4L438.6,531h274.9L541.1,603.4z M790.7,909.1c-89.9,0-163-73.1-163-163c0-72.5,47.8-133.4,113.4-154.5l19.5,154.2c2.1,16.4,15.1,28.2,29.1,26.5c14.1-1.8,23.7-16.5,21.7-32.9l-19.7-156.3c89.4,0.6,162,73.3,162,162.9C953.7,835.9,880.6,909.1,790.7,909.1z"/><path d="M618.6,246.7c53,0,96-43,96-96c0-53-42.9-96-96-96c-53,0-96,43-96,96C522.6,203.7,565.6,246.7,618.6,246.7z"/></g></g></g><g></g><g></g><g></g><g></g><g></g><g></g><g></g><g></g><g></g><g></g><g></g><g></g><g></g><g></g><g></g></g>
</svg>